<svg
    xmlns="http://www.w3.org/2000/svg"
    xml:space="preserve"
    data-id="lg_FzIy5Tvpx5gBeWSk0r"
    data-version="1"
    viewBox="0 0 252 220"
>
    <g transform="translate(-927 -28)">
        <path fill="#0d6efd" d="M1176.202  84.707c-.233 2.88-1.163 3.698-1.792 5.421-.147.405-.15 1.342-.168 2.046-.005.187.172.51.283.612.597.55 1.227.877 1.79 1.64.302.408.533 1.473.707 2.391.04.215-.245 1.236-.441 1.54-1.454 2.242-2.803 4.93-4.03 8.146a7.4 7.4 0 0 0-.403 1.826c-.06.643-.047 1.524.063 2.075.113.562.395 1.24.58 1.187.61-.173 1.214-.606 1.813-1.028.613-.432.932-.27.914.647-.013.698-.07 1.464-.191 2.048-.17.818-.623 1.39-.104 2.452.379.775.4 1.736.053 2.591-.673 1.667-1.352 3.265-2.203 4.206-.697.77-1.35 1.954-1.984 3.13-.15.274-.244 1.314-.196 1.878.05.585.273 1.222.472 1.483.985 1.29 1.98.052 2.974 0 .103-.006.302.362.297.516-.017.605-.044 1.583-.164 1.728-1.044 1.268-2.118 2.32-3.165 3.565-1.162 1.384-2.342 2.695-3.284 5.308-.235.655-.211 2.272.104 2.906.204.41.454.618.664 1.008.65 1.213.742 1.677.258 3.345-.586 2.02-.616 3.844-.19 6.031.564 2.891.554 3.148-.014 4.241-.21.404-.446.678-.668 1.03-.44.696-.864 1.425-.923 3.131-.04 1.173.628 1.685 1.636 1.126.864-.48 1.713-1.22 2.58-1.577.61-.253 1.243-.055 1.865-.058l-.103-.282c-.263.726-.488 1.68-.797 2.137-1.213 1.796-2.413 3.436-3.476 6.185-.906 2.345-2.171 3.467-3.275 5.143-.66 1.003-1.331 1.952-1.957 3.114-.133.248-.175 1.4-.108 1.98.063.546.375 1.356.493 1.248 1.043-.96 1.904.416 2.783 1.655l-.064.323c-.396 2.086-1.12 2.811-1.78 3.83-.656 1.015-1.321 2.01-1.935 3.224-.311.616-.348 1.625-.203 2.896.263 2.303.165 2.9-.29 3.593-.553.844-1.13 1.56-1.67 2.47-.534.895-1.108 1.741-1.535 2.995-1.1 3.23-2.425 5.123-3.88 6.362-2.63 2.241-5.265 4.436-7.896 6.665-.238.202-.463.524-.734.837-.088.983-.182 2.038-.292 3.06-1.056-1.653-2.19-1.74-3.326-1.819-1.38-.095-2.761-.196-4.06-.288-.227-.884-.425-1.392-.51-2.033-.204-1.54-.576-2.432-1.1-2.703s-1.132 1.071-1.436 2.995c-.482 3.047-.07 5.333 1.008 5.403.88.058 1.762.044 2.64-.127 2.256-.438 4.51-.982 6.766-1.483 2.933-2.114 5.83-4.602 8.706-7.309.7-.659 1.48-.632 2.226-.728.12-.016.282.94.37 1.517.036.224-.06.68-.124.971-.068.303-.156.635-.262.783-5.215 7.28-10.735 10.757-16.47 11.42-.613.07-1.24-.453-1.851-.839-1.231-.776-2.45-1.732-3.685-2.452-.867-.506-1.677 1.834-1.666 4.691.006 1.476.077 2.95.103 3.876-.782 3.561-1.474 6.66-2.146 9.794-.29 1.35-.7 2.098-1.204 2.468-.732.537-1.46 1.142-2.2 1.554-5.39 3.002-10.807 2.505-16.222.79-4.39-1.39-8.788-2.62-13.126-5.218-.981-.588-2.03-.162-3.013-.739-2.468-1.448-4.927-2.946-7.458-2.922-2.677-2.524-5.461-2.632-8.224-3.427-2.37-.68-4.712-2.218-7.067-3.364-.746-.363-1.49-.858-2.241-.999-3.78-.71-7.51-2.51-11.254-4.036-2.996-1.22-6.03-1.615-9.05-2.33-.5-.12-1.027-.28-1.505.048-3.13 2.141-6.296 1.248-9.421.57-3.911-.852-7.818-.855-11.728-.995a497.84 1475.74 0 0 0-8.33-.114c-4.816.068-9.55-1.957-14.287-4.274-3.732-1.826-7.504-2.958-11.263-4.272-1.132-.396-2.232-.877-3.318-2.034-1.304-1.388-2.673-2.222-3.997-3.456-1.081-1.007-2.165-2.07-3.2-3.433-1.15-1.515-2.196-3.823-3.378-4.997-1.195-1.189-2.41-2.12-3.495-4.094-.667-1.213-1.406-1.514-2.167-1.743-1.624-.49-3.244-1.107-5.025-1.727l.835-2.652c-1.884-1.143-3.72-2.036-5.458-4.336-.982-1.298-2.218-.994-3.345-1.219-1.022-.204-1.974-.532-2.772-2.865-.321-.936-.897-1.326-1.377-1.515-1.246-.493-2.504-.736-3.766-1.08.856-1.622 1.984.543 2.823-1.5.096-.235.26-.538.253-.78-.016-.67-.051-1.449-.18-1.955a3.4 3.4 0 0 0-.608-1.248c-1.051-1.372-2.155-2.13-3.305-2.05-1.013.073-2.012.032-2.977-1.012.033-.377.047-.822.077-.83 1.363-.434 2.728-.829 4.195-1.259.094-.965.162-1.985.29-2.93.589-4.31-.092-7.244-1.216-9.538-.72-1.469-1.468-2.814-2.39-3.2-.735-.31-1.468-1.003-2.16-1.835-.307-.37-.681-1.417-.731-2.303-.212-3.754-1.065-4.537-2.153-4.962a132.16 391.76 0 0 1-6.71-3.123c-.44-.24-.84-1.51-1.196-2.503-.138-.384-.126-1.312-.13-1.994 0-.172.2-.455.319-.51.62-.292 1.24-.66 1.863-.752 1.23-.184 2.465-.204 3.726-.996-.704-.5-1.43-.834-2.107-1.557-.458-.488-.865-1.46-1.267-2.328-.433-.935-.27-2.866.22-3.632.384-.6 1.054.468 1.19-1.9l-3.445-.887c.61-2.624 1.453-.963 2.079-1.897.56-.84 1.162-1.44 1.73-2.239.338-.476.655-1.104.965-1.73.095-.19.208-.648.19-.916-.04-.637-.101-1.617-.245-1.786-.814-.96-1.656-1.703-2.482-2.575-.092-.098-.22-.664-.196-.806.094-.537.223-1.344.374-1.416 1.484-.714 3.035-.25 4.44-2.356.272-.408.428-2.167.18-2.854-.362-.999-.721-2.198-1.162-2.71-.574-.667-1.222-.9-1.846-1.053-3.644-.889-7.29-1.699-10.924-2.532-.06-.8-.176-1.5-.143-2.134.082-1.596.02-2.87-.5-3.775a149 149 0 0 1-2.563-4.703c-.067-.13-.08-.707-.052-1.028.023-.27.126-.58.218-.685.87-.974 1.797-.82 2.598.137 2.388 2.86 4.922 2.938 7.407 4.024 2.875 1.257 5.752 2.031 8.66 1.88a3.6 3.6 0 0 1 2.25.646c1.518 1.036 2.992 1.603 4.377-1.2 1.12-.416 2.237-1.069 3.36-1.202 3.174-.378 6.21-2.885 9.282-4.87.1-.066.207-.416.26-.712.124-.676-.002-1.242-.342-1.284-.753-.094-1.508-.052-2.263-.096s-1.51-.072-2.262-.205c-.806-.142-.992-.972-.796-3.694.053-.724.177-1.428.183-2.15.01-1.124-.07-2.187-.495-2.715-1.068-1.323-2.162-1.728-3.325-1.59-3.152.37-6.307.503-9.461.707-.755.05-1.511.007-2.384.007.198-.689.287-1.308.418-1.404 1.099-.8 2.199-2.023 3.31-2.137 3.282-.336 6.48-2.715 9.757-3.12 1.637-.204 3.268-1.123 4.515-4.842 1.742-1.444 3.025-5.084 4.428-8.145.055-.12.032-.69-.004-1-.033-.29-.13-.727-.202-.733-2.382-.205-4.746-1.096-7.146.355-1.584.956-3.258.592-4.908.438 1.509-.783 3.008-1.404 4.49-2.594 1.696-1.36 3.485-1.66 5.227-2.524 1.617-.8 3.229-1.705 4.84-2.613 1.609-.908 3.217-1.832 4.819-2.842.863-.544 1.714-1.26 2.567-1.94.635-.506 1.13-1.635 1.48-3.268.593-2.75 1.17-5.528 1.736-8.206 1.066.554 1.61 2.696 2.087 4.865.549 2.5.988 5.21 1.466 7.844.48 2.642 1.28 3.498 2.216 3.384.496-.06 1.028-.189 1.475-.76 3.685-4.707 7.59-5.202 11.51-5.507a263.2 780.2 0 0 1 15.897.178c1.895.19 3.773.917 5.656 1.176 4.289.59 8.55 2.03 12.824 3.028 3.017.705 6.04 1.217 9.06 1.818 4.03.8 8.065 1.37 12.085 2.46 6.78 1.842 13.599 2.511 20.322 6.108 1.855.992 3.758 1.174 5.638 1.754 6.02 1.853 12.032 3.93 18.082 4.942 7.56 1.265 15.12 2.546 22.692 2.997 1.548.092 3.02 1.09 4.457 2.29 3.387 2.826 6.83 5.402 9.766 11.625.63 1.335 1.313 2.146 2.092 2.346a9.4 9.4 0 0 1 2.246.871c.886.49 1.737.396 2.617-.282 1.462-1.128 2.933-2.276 4.425-2.916 1.995-.859 3.914-2.486 5.835-4.158l-.012.067c.8 1.894 1.68 3.235 2.726 3.42.877.154 1.76.153 2.628.524 1.903.813 3.744.185 5.574-1.433.59-.523 1.226-.625 1.843-.863.108-.042.277.086.333.317.168.68.089 1.321-.127 1.95-.25.733-.47 1.56-.723 2.42.894 1.764 1.725.124 2.55.163.714.034 1.432-1.072 2.15.044-.467 2.046-1.224 2.42-1.938 3.018-.608.51-1.192 1.123-1.616 2.623-.203.718-.201 1.374.013 1.944.605 1.604 1.355 2.028 2.1 1.67 1.362-.648 2.703-1.642 4.058-2.415 1.224-.698 2.44-1.847 3.71-.87Zm-35.055 129.252c.216.48.339.372.326-.317-.001-.103-.153-.245-.234-.24-.032.004-.061.362-.092.557"/>
        <path fill="#fff" d="M963.006 202.837q-3.1 0-5-2.86-1.91-2.85-1.91-7.38 0-10.23 8.57-10.23 7.62 0 13.69-7.74 6.07-7.73 10.59-25.82l7.14-27.84q9.99-37.13 38.08-37.13 12.61 0 21.54 9.87 8.92 9.88 8.92 26.78v35.94q0 25.94 15.23 25.94 9.76 0 18.09-7.85 8.33-7.86 13.45-20.59t5.12-27.25v-3.81q-11.19-4.28-17.38-11.42.72-7.62 4.05-13.93 3.33-6.3 8.21-9.99t9.4-3.69q7.85 0 12.73 11.54t4.88 29.39q0 22.14-7.97 39.87t-21.78 27.96q-13.8 10.24-31.18 10.24-15.94 0-25.22-11.31-9.29-11.3-9.29-30.58v-37.37q0-10.47-3.09-14.87t-7.62-4.4q-4.99 0-8.56 4.52t-6.19 14.52l-8.81 34.27q-6.19 23.56-17.13 34.39-10.95 10.83-28.56 10.83"/>
    </g>
</svg>