<?xml version="1.0" encoding="UTF-8"?>
<svg preserveAspectRatio="none" xmlns="http://www.w3.org/2000/svg"
     data-id="lg_dmH4hVF7FlTFwZxbqD"
     data-version="1" viewBox="0 0 400 170"
>
    <g transform="translate(-845 5)">
        <path fill="#0d6efd" d="M1239.365 39.42c-.367 2.152-1.83 2.764-2.816 4.05-.232.303-.238 1.003-.265 1.529-.008.14.271.38.445.457.938.41 1.928.655 2.812 1.224.476.306.839 1.1 1.112 1.787.064.16-.385.924-.694 1.15a33.4 33.4 0 0 0-6.33 6.086 3.3 3.3 0 0 0-.636 1.364c-.093.48-.073 1.138.1 1.55.177.42.62.925.911.886.959-.13 1.908-.452 2.849-.767.963-.323 1.465-.203 1.437.483-.021.52-.111 1.093-.301 1.53-.266.61-.979 1.038-.163 1.83.595.58.627 1.298.083 1.937-1.058 1.245-2.124 2.438-3.461 3.14-1.096.577-2.12 1.46-3.118 2.339-.234.205-.384.982-.309 1.403.079.438.429.913.743 1.108 1.547.963 3.112.039 4.672 0 .163-.005.475.27.468.386-.027.452-.07 1.182-.258 1.29-1.641.948-3.328 1.733-4.974 2.664-1.826 1.033-3.68 2.013-5.16 3.965-.37.489-.333 1.697.163 2.17.32.307.714.462 1.043.754 1.021.905 1.166 1.252.405 2.498-.92 1.508-.968 2.87-.297 4.505.886 2.16.87 2.352-.022 3.168-.33.302-.702.506-1.05.768-.692.52-1.359 1.066-1.451 2.34-.064.876.986 1.259 2.57.84 1.358-.357 2.693-.91 4.057-1.177.96-.188 1.952-.04 2.929-.043l-.162-.21c-.414.54-.767 1.254-1.253 1.595-1.906 1.342-3.792 2.567-5.462 4.62-1.424 1.752-3.412 2.59-5.146 3.843-1.036.749-2.092 1.458-3.076 2.326-.209.185-.275 1.045-.17 1.479.1.408.59 1.013.776.932 1.64-.717 2.992.31 4.373 1.236l-.1.242c-.623 1.558-1.762 2.1-2.797 2.86-1.032.759-2.077 1.5-3.04 2.408-.491.46-.548 1.214-.32 2.164.412 1.72.258 2.166-.457 2.684-.869.63-1.775 1.166-2.624 1.844-.838.67-1.74 1.3-2.412 2.238-1.729 2.412-3.81 3.827-6.095 4.753-4.134 1.674-8.275 3.313-12.41 4.978-.373.15-.728.392-1.153.625-.139.735-.287 1.523-.46 2.285-1.658-1.233-3.441-1.298-5.225-1.357-2.17-.072-4.34-.147-6.38-.216-.357-.66-.668-1.04-.802-1.52-.321-1.15-.906-1.815-1.729-2.017-.825-.203-1.778.8-2.256 2.237-.757 2.276-.11 3.983 1.584 4.036 1.381.043 2.769.033 4.147-.095 3.547-.327 7.09-.733 10.634-1.108 4.61-1.58 9.16-3.437 13.681-5.46 1.1-.492 2.325-.471 3.497-.543.19-.012.443.702.584 1.133.054.167-.095.508-.197.725-.107.227-.245.474-.411.585-8.196 5.439-16.87 8.035-25.883 8.53-.963.053-1.949-.338-2.908-.626-1.935-.58-3.85-1.294-5.79-1.832-1.363-.378-2.636 1.37-2.618 3.505.01 1.102.12 2.202.161 2.895-1.229 2.66-2.316 4.974-3.372 7.316-.454 1.009-1.1 1.567-1.892 1.843-1.15.4-2.294.853-3.457 1.16-8.471 2.243-16.983 1.872-25.491.59-6.899-1.037-13.81-1.956-20.628-3.897-1.541-.44-3.19-.12-4.734-.552-3.878-1.081-7.743-2.2-11.72-2.182-4.207-1.886-8.582-1.967-12.923-2.56-3.724-.508-7.404-1.657-11.105-2.513-1.172-.271-2.342-.64-3.523-.746-5.937-.53-11.799-1.876-17.684-3.015-4.708-.912-9.477-1.207-14.22-1.741-.786-.09-1.615-.21-2.366.036-4.917 1.6-9.894.933-14.805.425-6.146-.636-12.285-.638-18.43-.742a782.32 1102.36 0 0 0-13.09-.085c-7.567.05-15.006-1.462-22.45-3.193-5.865-1.364-11.792-2.21-17.699-3.191-1.779-.296-3.508-.656-5.215-1.52-2.048-1.037-4.2-1.66-6.28-2.58-1.7-.754-3.403-1.548-5.028-2.566-1.808-1.131-3.452-2.856-5.309-3.732-1.879-.888-3.787-1.584-5.493-3.06-1.047-.905-2.209-1.13-3.405-1.301-2.552-.366-5.098-.826-7.897-1.29l1.312-1.98c-2.96-.854-5.844-1.522-8.576-3.24-1.544-.97-3.486-.742-5.256-.91-1.607-.152-3.102-.397-4.357-2.14-.504-.7-1.409-.99-2.163-1.132-1.959-.368-3.935-.55-5.918-.808 1.345-1.21 3.118.407 4.435-1.12.152-.175.408-.401.4-.581-.027-.502-.082-1.083-.286-1.461-.223-.415-.602-.713-.954-.932-1.652-1.025-3.387-1.592-5.194-1.531-1.59.054-3.16.023-4.677-.757.052-.281.074-.614.12-.62 2.143-.323 4.287-.62 6.592-.94.148-.72.256-1.483.458-2.19.924-3.218-.146-5.41-1.913-7.123-1.132-1.098-2.307-2.102-3.753-2.391-1.158-.23-2.309-.75-3.396-1.37-.483-.277-1.071-1.06-1.15-1.72-.333-2.805-1.673-3.39-3.383-3.707a207.68 292.64 0 0 1-10.543-2.333c-.69-.18-1.32-1.13-1.88-1.87-.217-.287-.199-.98-.203-1.49 0-.128.315-.34.5-.38.973-.218 1.947-.493 2.928-.562 1.934-.137 3.873-.153 5.855-.744-1.107-.374-2.246-.623-3.311-1.163-.72-.365-1.36-1.09-1.992-1.74-.68-.698-.422-2.14.346-2.712.603-.45 1.656.349 1.872-1.42l-5.416-.662c.96-1.96 2.284-.72 3.267-1.417.881-.627 1.826-1.075 2.72-1.673.53-.355 1.028-.824 1.516-1.292.15-.143.327-.484.3-.684-.064-.476-.161-1.208-.387-1.334-1.279-.717-2.603-1.273-3.9-1.924-.144-.073-.346-.496-.308-.602.147-.4.35-1.004.588-1.058 2.332-.533 4.77-.186 6.976-1.76.428-.305.674-1.618.283-2.132-.569-.746-1.133-1.641-1.825-2.023-.902-.5-1.92-.674-2.9-.788-5.727-.663-11.457-1.268-17.167-1.89-.093-.598-.278-1.122-.226-1.595.13-1.192.033-2.144-.783-2.82a126 126 0 0 1-4.029-3.513c-.106-.097-.125-.528-.082-.768.036-.201.198-.434.343-.511 1.366-.728 2.824-.614 4.081.102 3.754 2.136 7.735 2.195 11.64 3.006 4.518.939 9.04 1.517 13.61 1.404 1.178-.03 2.39.11 3.535.483 2.385.774 4.701 1.197 6.878-.898 1.76-.31 3.516-.797 5.282-.897 4.985-.282 9.758-2.155 14.584-3.638.16-.05.326-.31.41-.531.194-.505-.005-.928-.539-.96-1.184-.07-2.37-.038-3.556-.071s-2.372-.054-3.555-.153c-1.266-.106-1.558-.726-1.25-2.76.082-.54.277-1.066.287-1.605.015-.84-.108-1.634-.778-2.03-1.678-.987-3.397-1.29-5.224-1.187-4.954.277-9.911.376-14.868.529-1.187.036-2.375.005-3.746.005.311-.515.45-.977.657-1.05 1.726-.596 3.455-1.51 5.2-1.595 5.158-.25 10.183-2.028 15.334-2.331 2.572-.152 5.135-.838 7.095-3.616 2.736-1.08 4.753-3.8 6.958-6.085.086-.09.05-.515-.006-.747-.053-.216-.205-.543-.319-.548-3.742-.153-7.458-.818-11.23.266-2.487.714-5.119.442-7.711.327 2.371-.585 4.726-1.05 7.057-1.938 2.663-1.016 5.475-1.24 8.213-1.885 2.541-.597 5.073-1.273 7.604-1.952a274 274 0 0 0 7.574-2.123c1.356-.406 2.694-.94 4.034-1.45.997-.377 1.774-1.22 2.327-2.44.93-2.055 1.839-4.13 2.727-6.13 1.674.414 2.53 2.014 3.279 3.634.862 1.867 1.553 3.892 2.304 5.86.753 1.973 2.01 2.612 3.482 2.527.78-.044 1.616-.14 2.318-.567 5.79-3.517 11.928-3.886 18.087-4.114a413.6 582.8 0 0 1 24.981.133c2.978.142 5.929.685 8.888.878 6.74.44 13.435 1.516 20.152 2.262 4.741.527 9.492.91 14.238 1.358 6.331.598 12.673 1.023 18.99 1.838 10.653 1.376 21.369 1.876 31.935 4.562 2.914.74 5.905.878 8.86 1.31 9.46 1.385 18.906 2.936 28.413 3.692 11.882.945 23.761 1.902 35.659 2.24 2.433.068 4.746.813 7.004 1.709 5.322 2.11 10.735 4.036 15.347 8.684.99.997 2.063 1.603 3.287 1.753a26 26 0 0 1 3.53.65c1.393.366 2.73.296 4.112-.21 2.298-.843 4.61-1.7 6.954-2.18 3.135-.64 6.15-1.855 9.17-3.104l-.02.05c1.259 1.415 2.64 2.416 4.284 2.554 1.378.115 2.768.115 4.13.39 2.99.609 5.883.14 8.758-1.07.93-.39 1.927-.466 2.897-.644.17-.03.435.065.524.237.264.509.14.987-.2 1.457-.394.548-.738 1.166-1.137 1.807 1.405 1.319 2.712.094 4.007.123 1.123.025 2.25-.801 3.38.033-.735 1.528-1.924 1.807-3.046 2.254-.955.38-1.874.839-2.54 1.96-.318.535-.316 1.026.021 1.45.95 1.2 2.129 1.516 3.302 1.249 2.138-.485 4.246-1.227 6.374-1.804 1.924-.521 3.836-1.38 5.832-.65Zm-55.087 96.55c.339.36.532.279.512-.235-.002-.077-.24-.184-.368-.18-.05.003-.096.27-.144.416"/>
        <path fill="#fff" d="M940.369 102.785q-.95 0-1.53-.88-.59-.87-.59-2.26 0-3.14 2.63-3.14 2.34 0 4.2-2.37t3.25-7.92l2.19-8.54q3.06-11.39 11.68-11.39 3.87 0 6.6 3.03 2.74 3.03 2.74 8.21v11.02q0 7.96 4.67 7.96 3 0 5.55-2.41 2.56-2.41 4.13-6.31 1.56-3.91 1.56-8.36v-1.17q-3.43-1.31-5.32-3.5.21-2.34 1.24-4.27 1.02-1.94 2.52-3.07 1.49-1.13 2.88-1.13 2.41 0 3.9 3.54 1.5 3.54 1.5 9.02 0 6.78-2.44 12.22-2.45 5.44-6.68 8.58-4.24 3.14-9.57 3.14-4.89 0-7.74-3.47-2.84-3.47-2.84-9.38v-11.46q0-3.21-.95-4.56t-2.34-1.35q-1.53 0-2.63 1.38-1.09 1.39-1.89 4.46l-2.7 10.51q-1.9 7.23-5.26 10.55t-8.76 3.32m58.98-6.28q2.41 0 4.71-2.3t3.91-6.17q-.29-1.75-.29-3.57 0-5.26 2.26-9.35t6.17-6.46q3.9-2.37 8.79-2.37t8.76 2.37 6.1 6.46 2.23 9.35q0 5.25-2.23 9.41t-6.06 6.54q-3.83 2.37-8.8 2.37-4.45 0-8.06-1.94-3.62-1.93-5.95-5.29-4.53 7.23-12.05 7.23-.95 0-1.53-.88-.58-.87-.58-2.26 0-3.14 2.62-3.14m25.48 0q4.67 0 7.48-3.28 2.81-3.29 2.81-8.76 0-2.7-.8-4.97-4.38-.14-7.92-1.75t-5.58-4.38q-2.92 1.24-4.6 4.2-1.68 2.95-1.68 7.04 0 5.33 2.81 8.62 2.81 3.28 7.48 3.28m20.08 6.28q-.95 0-1.54-.88-.58-.87-.58-2.26 0-1.46.69-2.3.7-.84 1.86-.84 2.34 0 5.04-1.68t5.26-4.6q-.59-2.7-.92-6.35-.32-3.65-.47-8.83t-.15-12.48h.08l-.08-.08q0-6.49.15-11.02t.58-7.59q.44-3.07 1.14-5.22.69-2.15 1.78-3.91 1.61-2.62 3.98-3.79t5.22-1.17q5.7 0 8.76 5.04 3.07 5.03 3.07 13.87 0 10.58-4.16 21.75t-11.9 21.32q1.02 2.41 2.99 3.61t4.53 1.2q1.02 0 1.64.84t.62 2.3q0 3.07-2.7 3.07-3.94 0-7.01-1.68t-4.74-4.31q-6.06 5.99-13.14 5.99m15.69-39.86q0 7.67.11 12.63t.33 8.18q5.55-9.2 8.39-18 2.85-8.79 2.85-17.12 0-6.06-1.39-9.3-1.38-3.25-3.94-3.25-2.85 0-4.31 3.36-.73 1.75-1.2 4.41-.47 2.67-.66 7.19-.18 4.53-.18 11.9m16.51 39.86q-.95 0-1.53-.88-.59-.87-.59-2.26 0-3.14 2.63-3.14 2.12 0 4.31-.69 2.19-.7 5.11-2.37-2.85-4.97-2.85-11.68 0-4.53 1.68-8t4.67-5.47q2.99-2.01 6.79-2.01 3.21 0 5.69 1.5 2.49 1.49 3.87 4.12 1.39 2.63 1.39 6.06 0 4.67-2.74 8.54t-9.23 8.4q2.33 1.67 6.28 1.67 1.02 0 1.6.88.59.88.59 2.34 0 1.38-.66 2.19-.66.8-1.9.8-3.5 0-6.57-1.17t-5.11-3.21q-7.01 4.38-13.43 4.38m13.43-21.61q0 5.77 2.04 9.2 4.75-3.29 7.05-6.42 2.3-3.14 2.3-5.99 0-2.63-1.28-4.13-1.28-1.49-3.54-1.49-2.85 0-4.71 2.55-1.86 2.56-1.86 6.28m19.34 15.33q2.48 0 4.85-2.44 2.37-2.45 3.98-6.61-.07-1.02-.07-2.04 0-5.55 2.19-9.86t5.95-6.79q3.75-2.48 8.57-2.48 2.56 0 5.04.98 2.48.99 4.16 2.67v-2.99q.66-.22 1.53-.37.88-.14 1.83-.14 1.75 0 3.28.51v55.26q0 17.08-12.48 17.08-5.77 0-9.01-3.43-3.25-3.43-3.25-9.42 0-13.36 18.25-25.04v-3.06q-2.05 2.11-4.75 3.28t-5.91 1.17q-4.24 0-7.48-1.86-3.25-1.86-5.3-5.15-4.52 7.01-11.9 7.01-.94 0-1.53-.88-.58-.87-.58-2.26 0-3.14 2.63-3.14m15.54-11.09q0 5.18 2.38 8.13 2.37 2.96 6.53 2.96 4.6 0 7.41-3.14t2.81-8.25v-8.17q-1.46-1.97-3.72-3.18-2.27-1.2-4.67-1.2-3.14 0-5.55 1.68t-3.8 4.56-1.39 6.61m7.6 40.88q0 3.13 1.46 4.92t4.01 1.79q6.21 0 6.21-10.8v-13.07q-11.68 8.25-11.68 17.16"/>
    </g>
</svg>